<svg width="824" height="448" viewBox="0 0 824 448" fill="none" xmlns="http://www.w3.org/2000/svg">
<g filter="url(#filter0_d_3658_4796)">
<path d="M138.663 141.476H570.247M38.6947 204.929V387.713C38.6947 388.319 38.9344 388.901 39.3611 389.33C39.7877 389.758 40.3665 389.999 40.9699 389.999H618.17C618.488 390.007 618.804 389.947 619.098 389.824C619.392 389.701 619.657 389.517 619.876 389.285L784.831 206.644C785.191 206.227 785.389 205.694 785.389 205.143C785.389 204.591 785.191 204.058 784.831 203.642L619.592 20.7152C619.373 20.4827 619.108 20.299 618.814 20.1759C618.52 20.0528 618.204 19.9931 617.885 20.0006H40.9699C40.3665 20.0006 39.7877 20.2415 39.3611 20.6704C38.9344 21.0992 38.6947 21.6808 38.6947 22.2872V204.929Z" stroke="#3E95CC" stroke-width="38.4643" shape-rendering="crispEdges"/>
</g>
<defs>
<filter id="filter0_d_3658_4796" x="0.230379" y="0.767855" width="823.623" height="446.929" filterUnits="userSpaceOnUse" color-interpolation-filters="sRGB">
<feFlood flood-opacity="0" result="BackgroundImageFix"/>
<feColorMatrix in="SourceAlpha" type="matrix" values="0 0 0 0 0 0 0 0 0 0 0 0 0 0 0 0 0 0 127 0" result="hardAlpha"/>
<feOffset dy="19.2321"/>
<feGaussianBlur stdDeviation="9.61607"/>
<feComposite in2="hardAlpha" operator="out"/>
<feColorMatrix type="matrix" values="0 0 0 0 0 0 0 0 0 0 0 0 0 0 0 0 0 0 0.25 0"/>
<feBlend mode="normal" in2="BackgroundImageFix" result="effect1_dropShadow_3658_4796"/>
<feBlend mode="normal" in="SourceGraphic" in2="effect1_dropShadow_3658_4796" result="shape"/>
</filter>
</defs>
</svg>
