<svg width="333" height="162" viewBox="0 0 333 162" fill="none" xmlns="http://www.w3.org/2000/svg">
<g filter="url(#filter0_d_405_474)">
<path d="M93.9819 15.4288H138.862M83.5862 22.0272V41.0349C83.5862 41.098 83.6111 41.1585 83.6555 41.2031C83.6998 41.2477 83.76 41.2727 83.8228 41.2727H143.846C143.879 41.2735 143.912 41.2673 143.942 41.2545C143.973 41.2417 144 41.2226 144.023 41.1984L161.177 22.2056C161.214 22.1623 161.235 22.1069 161.235 22.0495C161.235 21.9922 161.214 21.9367 161.177 21.8935L143.994 2.87088C143.971 2.84671 143.943 2.8276 143.913 2.8148C143.882 2.802 143.849 2.79579 143.816 2.79657H83.8228C83.76 2.79657 83.6998 2.82163 83.6555 2.86622C83.6111 2.91081 83.5862 2.97129 83.5862 3.03436V22.0272Z" stroke="white" stroke-width="4" shape-rendering="crispEdges"/>
</g>
<g filter="url(#filter1_d_405_474)">
<path d="M56.4892 72.2247C56.4004 71.9671 56.6518 71.3281 57.2433 70.3076C57.8348 69.2871 58.4707 67.9694 59.1509 66.3545C59.9653 64.6112 60.686 62.8253 61.3099 61.0044C62.0502 58.9909 62.5467 56.8953 62.7887 54.7626C63.1273 52.651 63.1273 50.4986 62.7887 48.387C62.4237 46.17 61.5308 44.0744 60.1861 42.279C59.706 41.7479 59.1186 41.326 58.4632 41.0415C57.8078 40.7571 57.0995 40.6165 56.3856 40.6294C54.4953 40.4946 52.5975 40.7526 50.8107 41.3873C48.5416 42.1031 46.3707 43.1016 44.3485 44.3596C42.1472 45.6406 40.1067 47.1823 38.2708 48.9518C36.4185 50.6412 34.7974 52.5702 33.45 54.6883C32.2332 56.6528 31.4936 58.8776 31.291 61.1827C31.1209 62.8361 31.1657 64.5047 31.4241 66.1464C31.7346 67.5805 32.1599 68.987 32.6959 70.3522C33.1675 71.5555 33.7056 72.7314 34.3077 73.8743C34.8992 74.9741 35.4464 75.9648 35.9492 76.8466C36.8291 78.2965 37.8929 79.6254 39.1137 80.7997C40.553 82.2463 42.1156 83.9008 43.8014 85.7634C45.6152 87.693 47.3091 89.7328 48.8735 91.8715C50.6346 94.2889 52.1226 96.8958 53.3098 99.644C54.6328 102.732 55.5284 105.987 55.9716 109.319C56.4778 113.269 56.433 117.27 55.8385 121.208C55.159 126.625 53.6631 131.907 51.4022 136.872C49.7169 140.607 47.4506 144.048 44.6886 147.067C42.665 149.36 40.2067 151.224 37.4575 152.551C35.5264 153.547 33.4868 154.315 31.3798 154.839C29.8683 155.129 28.3432 155.342 26.8104 155.478C24.9962 155.729 23.1536 155.684 21.3538 155.344C19.3702 155.053 17.4443 154.451 15.6457 153.561C13.6154 152.642 11.8351 151.245 10.4553 149.489C8.71503 147.402 7.30819 145.055 6.28518 142.534C5.28613 140.158 4.60489 137.659 4.25927 135.103C3.76296 132.251 3.98149 129.319 4.89514 126.573C5.55119 125.829 6.2739 125.148 7.05413 124.537C7.77468 123.984 8.53597 123.487 9.33143 123.051C10.1916 122.535 11.0803 122.068 11.9932 121.654C13.0875 121.317 14.1867 121.02 15.2908 120.762C16.267 120.587 17.2569 120.503 18.2484 120.509C19.2796 120.416 20.3187 120.548 21.2946 120.896C20.1855 122.093 19.2855 123.469 18.6328 124.968C18.3406 125.544 18.0886 126.14 17.8787 126.751C17.5201 128.641 17.391 130.567 17.4942 132.488C17.6148 134.698 18.048 136.88 18.7807 138.967C19.5611 140.99 20.7724 142.816 22.3297 144.317C23.9849 145.89 26.1895 146.744 28.4666 146.695C34.638 146.864 39.8777 142.024 44.1859 132.176C45.5816 129.289 46.3192 126.126 46.3448 122.917C46.4416 119.859 46.0574 116.804 45.2062 113.866C44.4833 111.071 43.4205 108.375 42.0416 105.841C40.9336 103.559 39.6168 101.384 38.1081 99.3468C36.5696 97.3434 34.9207 95.4283 33.1691 93.6103C31.3058 91.49 29.4672 89.2014 27.6533 86.7443C25.7493 84.2116 24.053 81.5277 22.5811 78.7191C21.1056 75.7554 20.1074 72.5752 19.6236 69.297C18.9082 64.9302 19.3468 60.4511 20.8953 56.3082C22.4034 52.5019 24.5491 48.9834 27.2392 45.9052C29.7807 43.0638 32.7256 40.615 35.9787 38.638C38.605 37.0101 41.4692 35.8065 44.4668 35.0712C58.0714 32.3566 66.9884 34.6502 71.2176 41.9521C72.9625 44.6132 73.9822 47.6878 74.1751 50.8689C74.3397 53.7992 74.1109 56.7385 73.4949 59.6074C73.0828 61.9279 72.4029 64.1922 71.469 66.3545C71.1336 67.4168 70.6346 68.4197 69.9903 69.3267C69.2618 69.9596 68.4509 70.4895 67.5799 70.9021C65.8861 71.6869 64.0958 72.2417 62.2563 72.5517C61.5939 72.7189 60.9135 72.8038 60.2304 72.8043C59.5924 72.7996 58.9553 72.7549 58.3228 72.6706C57.6905 72.6301 57.07 72.4792 56.4892 72.2247ZM93.1181 126.365C96.2251 126.199 99.2187 125.136 101.739 123.303C105.034 121.102 108.132 118.616 110.996 115.873C113.913 113.201 116.663 110.352 119.233 107.342C121.767 104.37 123.669 101.992 124.941 100.209C125.419 99.3386 126.182 98.6613 127.1 98.2916C127.34 98.1635 127.615 98.1188 127.882 98.1645C128.15 98.2102 128.395 98.3437 128.579 98.5442C128.979 99.1579 129.128 99.9036 128.993 100.625C128.84 101.689 128.45 102.705 127.854 103.597C127.263 104.588 126.247 106.074 124.808 108.056C123.369 110.037 121.722 112.118 119.869 114.297C117.834 116.682 115.682 118.964 113.422 121.134C111.066 123.418 108.567 125.548 105.939 127.509C103.406 129.33 100.684 130.87 97.8206 132.101C95.2442 133.328 92.4347 133.982 89.5839 134.018C86.3181 134.123 83.0816 133.37 80.1937 131.834C77.8342 130.538 75.8087 128.706 74.2787 126.484C72.8362 124.265 71.8042 121.803 71.2324 119.216C70.65 116.581 70.3525 113.891 70.3452 111.191C70.4671 107.853 71.0647 104.55 72.1197 101.383C73.3206 97.4415 75.0573 93.6857 77.2806 90.2219C79.6286 86.5868 82.639 83.4304 86.1531 80.9186C89.7701 78.2591 94.1528 76.8605 98.6339 76.9358C99.9056 76.9086 101.169 77.1438 102.347 77.627C103.525 78.1101 104.591 78.8308 105.481 79.7446C106.469 80.7386 107.231 81.9364 107.713 83.2553C108.196 84.5742 108.388 85.9826 108.275 87.3833C108.267 88.9408 108.007 90.4866 107.506 91.9606C107.02 93.3679 106.338 94.6989 105.481 95.9138C104.654 97.0014 103.618 97.9111 102.434 98.5888C101.328 99.2734 100.051 99.6289 98.7522 99.6143C98.2697 99.6458 97.7869 99.5579 97.3461 99.3584C96.9053 99.1589 96.5198 98.8539 96.2235 98.4699C95.7087 97.6074 95.3624 96.6541 95.2032 95.6611C95.1186 94.6027 95.1186 93.5392 95.2032 92.4808C95.2862 91.7838 95.455 91.0999 95.7059 90.4448C96.0585 89.9111 96.5357 89.4723 97.096 89.1667L98.8705 88.275C99.3659 88.0312 99.7665 87.6286 100.009 87.1307C100.335 86.6429 100.51 86.0688 100.512 85.4811C100.517 84.9428 100.339 84.4188 100.009 83.9949C99.803 83.7685 99.5476 83.593 99.2629 83.4822C98.9782 83.3713 98.6718 83.3281 98.3677 83.3559C96.8587 83.6596 95.4349 84.2939 94.1976 85.2136C91.903 86.7164 89.853 88.5661 88.1199 90.6974C85.873 93.4318 84.0348 96.4807 82.6632 99.748C80.9978 103.794 80.158 108.135 80.1937 112.514C80.0287 114.866 80.4188 117.223 81.3324 119.395C82.0098 120.947 83.0262 122.326 84.3061 123.43C85.5861 124.533 87.0967 125.333 88.7262 125.77C90.1571 126.165 91.6342 126.365 93.1181 126.365ZM113.909 130.05C113.466 130.845 112.775 131.472 111.943 131.834C111.656 132 111.335 132.098 111.004 132.121C110.674 132.144 110.342 132.092 110.035 131.967C109.745 131.883 109.485 131.718 109.284 131.492C109.082 131.266 108.948 130.988 108.896 130.689C108.763 129.809 108.941 128.91 109.399 128.148C109.656 127.643 110.247 126.499 111.174 124.715C112.1 122.932 113.155 120.807 114.338 118.34C115.521 115.793 116.833 113.074 118.272 110.181L122.324 101.769C123.674 99.1337 124.902 96.8005 126.006 94.7694C127.11 92.7384 127.938 91.2225 128.49 90.2219C127.563 89.3698 126.928 88.7754 126.582 88.4385C126.133 87.664 125.874 86.7926 125.828 85.8972C125.717 84.415 125.976 82.9284 126.582 81.5725C127.266 79.7736 128.16 78.0624 129.244 76.4751C130.267 74.8699 131.507 73.4146 132.926 72.1504C133.976 71.0924 135.376 70.4579 136.86 70.367C137.812 70.2671 138.773 70.4269 139.642 70.8297C140.511 71.2324 141.256 71.8632 141.799 72.6557C142.766 74.0562 143.375 75.674 143.573 77.3668C143.727 78.7729 143.642 80.1951 143.322 81.5725C143.005 83.2182 142.356 84.7811 141.414 86.1647L142.435 86.8037C143.09 87.0053 143.776 87.0908 144.461 87.0564C145.399 87.1019 146.34 87.0169 147.256 86.8037C148.128 86.6042 149.023 86.5193 149.917 86.5511C151.198 86.4995 152.455 86.9049 153.466 87.6954C154.417 88.4023 155.196 89.317 155.744 90.3705C156.354 91.436 156.784 92.5962 157.015 93.8035C157.334 94.8848 157.547 95.9948 157.651 97.1175C157.862 99.4496 157.284 101.785 156.01 103.746C154.659 106.034 153.013 108.541 151.071 111.266C149.878 112.92 148.665 114.822 147.433 116.972C146.369 118.688 145.853 120.69 145.954 122.709C146.068 123.651 146.37 124.561 146.842 125.384C147.265 126.068 148.448 126.409 150.391 126.409C152.058 126.348 153.678 125.835 155.078 124.923C156.971 123.73 158.753 122.367 160.402 120.851C162.265 119.157 164.084 117.329 165.858 115.367C167.633 113.406 169.279 111.454 170.797 109.512C172.316 107.53 173.582 105.792 174.598 104.296C175.613 102.8 176.417 101.66 177.008 100.877C177.384 100.24 177.962 99.7477 178.65 99.4805C178.929 99.3542 179.231 99.2888 179.537 99.2888C179.843 99.2888 180.145 99.3542 180.424 99.4805C180.686 99.632 180.904 99.8479 181.06 100.108C181.215 100.368 181.302 100.664 181.311 100.967C181.401 102.062 181.085 103.152 180.424 104.028C179.921 104.88 179.034 106.237 177.762 108.1C176.491 109.963 175.012 112.043 173.326 114.342C171.64 116.631 169.738 119.008 167.618 121.475C165.529 123.832 163.287 126.047 160.905 128.104C158.762 129.964 156.427 131.588 153.94 132.948C151.97 134.141 149.731 134.811 147.433 134.895C145.533 134.968 143.649 134.526 141.976 133.617C140.612 132.83 139.408 131.792 138.427 130.556C136.728 128.149 135.923 125.22 136.15 122.278C136.25 121.187 136.504 120.116 136.904 119.098C137.407 117.909 137.954 116.72 138.546 115.531C139.137 114.342 139.812 113.108 140.572 111.83C141.331 110.552 142.006 109.319 142.597 108.13C144.037 105.663 145.175 103.582 146.013 101.888C146.815 100.531 147.291 99.0041 147.403 97.4296C147.417 96.7183 147.244 96.016 146.901 95.3936C146.739 95.1041 146.499 94.8666 146.209 94.7088C145.918 94.5509 145.589 94.4792 145.259 94.5019C144.875 94.4891 144.491 94.5342 144.121 94.6357H143.485C143.186 94.6552 142.889 94.6999 142.597 94.7694H140.912C139.955 94.7992 139.003 94.627 138.117 94.2642C137.42 93.9497 136.698 93.6962 135.958 93.5062C135.623 94.1007 134.864 95.3738 133.681 97.3256L129.51 104.192C127.982 106.827 126.331 109.601 124.557 112.514C122.782 115.427 121.175 118.146 119.736 120.673C118.218 123.14 116.951 125.265 115.935 127.048C114.92 128.832 114.245 129.832 113.909 130.05ZM199.352 55.6543C199.06 56.684 198.556 57.6408 197.874 58.4631C197.196 59.3159 196.381 60.0492 195.463 60.6328C194.645 61.1344 193.743 61.4819 192.801 61.6583C192.409 61.7567 191.999 61.7623 191.604 61.6746C191.209 61.5869 190.839 61.4084 190.524 61.153C189.771 60.6829 189.13 60.0516 188.646 59.3041C188.163 58.5566 187.85 57.7113 187.729 56.8283C187.63 55.2585 188.028 53.6975 188.868 52.3699C189.668 50.9753 190.745 49.7612 192.033 48.8032C192.975 47.9535 194.105 47.3421 195.33 47.0198C195.732 46.9222 196.153 46.9297 196.552 47.0415C196.95 47.1534 197.314 47.3659 197.607 47.6588C198.302 48.2205 198.816 48.9752 199.086 49.8286C199.444 50.7773 199.615 51.7867 199.589 52.8009C199.681 53.7586 199.6 54.725 199.352 55.6543ZM181.859 82.7912C182.525 82.1431 183.361 81.6996 184.269 81.5131C185.476 81.1707 186.707 80.9174 187.951 80.7552C189.075 80.5148 190.219 80.3854 191.367 80.3688C191.999 80.2703 192.643 80.2703 193.275 80.3688C193.19 81.2862 192.976 82.1869 192.639 83.0438C192.136 84.738 191.5 86.7195 190.731 88.9884C189.962 91.2572 189.159 93.6499 188.321 96.1664C187.473 98.5442 186.837 100.496 186.413 102.022C185.989 103.548 185.496 105.286 184.934 107.238C184.343 109.111 183.796 110.978 183.293 112.841C182.889 114.519 182.593 116.222 182.406 117.938C182.192 119.184 182.325 120.465 182.79 121.639C183.079 122.461 183.555 123.204 184.18 123.809C184.666 124.136 185.237 124.312 185.822 124.314C188.17 124.044 190.382 123.065 192.166 121.505C194.946 119.498 197.571 117.283 200.018 114.877C202.719 112.241 205.213 109.611 207.5 106.986C209.788 104.36 211.454 102.2 212.499 100.506C213.016 99.7851 213.715 99.2158 214.524 98.8563C214.807 98.7226 215.118 98.6646 215.429 98.688C215.74 98.7115 216.04 98.8155 216.299 98.9901C216.556 99.1762 216.76 99.426 216.892 99.7151C217.024 100.004 217.08 100.323 217.053 100.64C217.092 101.589 216.828 102.527 216.299 103.315C214.538 106.3 212.561 109.151 210.384 111.845C207.762 115.075 204.972 118.216 202.014 121.267C199.295 124.015 196.373 126.554 193.275 128.861C190.485 130.982 188.203 132.086 186.428 132.176C184.955 132.255 183.483 131.995 182.125 131.418C180.754 130.895 179.472 130.164 178.324 129.248C177.24 128.266 176.299 127.136 175.53 125.889C174.79 124.604 174.354 123.165 174.258 121.683C174 118.801 174 115.901 174.258 113.019C174.518 109.217 174.982 105.432 175.648 101.68C176.283 97.9397 177.127 94.2384 178.176 90.5934C178.936 87.7944 180.182 85.1529 181.859 82.7912ZM236.159 57.6903C234.887 62.7828 233.453 67.6672 231.856 72.3436C230.258 77.02 228.652 81.3496 227.035 85.3325C225.428 89.2955 223.782 92.9465 222.096 96.2853C220.41 99.6242 218.971 102.512 217.778 104.95C216.921 109.836 216.921 114.835 217.778 119.722C218.626 123.457 220.272 125.324 222.717 125.324C224.978 125.201 227.101 124.193 228.632 122.516C230.69 120.492 232.44 118.173 233.822 115.635C235.365 112.885 236.642 109.994 237.638 107C238.635 104.285 239.314 101.462 239.663 98.5888C238.155 98.2136 236.763 97.4681 235.612 96.4191C234.662 95.3962 234.084 94.082 233.968 92.6882C233.853 91.2944 234.208 89.9021 234.976 88.7357C236.236 86.6375 238.156 85.0215 240.432 84.1436C241.4 83.7447 242.433 83.5281 243.479 83.5045C244.918 83.5045 246.145 84.4408 247.161 86.3133C248.276 88.4511 248.96 90.7896 249.172 93.1941C252.764 93.0927 256.335 92.5944 259.819 91.708C263.421 90.8147 266.943 89.6217 270.348 88.1413C271.039 87.7507 271.844 87.614 272.625 87.7549C272.887 87.8125 273.129 87.9373 273.329 88.117C273.528 88.2967 273.678 88.5252 273.764 88.7803C273.889 89.0606 273.954 89.3645 273.954 89.672C273.954 89.9794 273.889 90.2834 273.764 90.5637C273.465 91.2009 272.936 91.7002 272.285 91.9606C270.311 93.0823 268.283 94.1041 266.207 95.0221C262.371 96.6301 258.375 97.8256 254.288 98.5888C252.616 98.9089 250.919 99.078 249.216 99.0941C248.755 102.935 247.687 106.678 246.052 110.181C244.296 114.055 242.129 117.727 239.59 121.134C237.194 124.309 234.332 127.1 231.101 129.411C228.528 131.453 225.372 132.614 222.096 132.725C220.86 132.694 219.629 132.565 218.414 132.339C216.682 131.963 215.123 131.022 213.977 129.664C212.228 127.546 210.97 125.064 210.295 122.397C209.149 117.689 208.721 112.833 209.023 107.996C209.136 103.547 209.601 99.1144 210.414 94.7397C211.261 90.0732 212.277 85.4018 213.46 80.7254C214.643 76.0491 215.954 71.5461 217.393 67.2164C218.911 62.7976 220.351 58.8346 221.711 55.3273C223.072 51.82 224.299 48.8478 225.393 46.4105C226.121 44.7918 227.013 43.2529 228.055 41.8183C228.76 40.9276 229.675 40.2277 230.717 39.7823C231.649 39.2997 232.645 38.9544 233.674 38.7569C234.585 38.5114 235.53 38.426 236.469 38.5042C237.078 38.5355 237.677 38.666 238.244 38.8906C238.747 39.2275 238.875 41.0951 238.628 44.4934C238.259 48.966 237.431 53.3883 236.159 57.6903ZM318.378 104.192C315.757 108.036 312.876 111.696 309.757 115.144C306.606 118.57 303.173 121.722 299.494 124.567C296.087 127.201 292.384 129.425 288.463 131.195C285.055 132.825 281.338 133.697 277.564 133.751C275.466 133.697 273.399 133.222 271.486 132.354C269.274 131.436 267.287 130.046 265.66 128.282C263.727 126.185 262.242 123.711 261.298 121.015C260.234 117.509 259.932 113.814 260.41 110.181C260.84 106.376 261.91 102.672 263.575 99.2279C265.38 95.4049 267.634 91.8126 270.289 88.5277C272.87 85.4106 275.906 82.7049 279.294 80.5025C282.306 78.4944 285.825 77.3912 289.439 77.3222C292.652 77.3222 294.974 78.1296 296.404 79.7446C297.113 80.549 297.649 81.4926 297.978 82.5158C298.306 83.539 298.42 84.6196 298.311 85.6891C298.082 88.2481 297.305 90.7271 296.034 92.9564C294.864 95.1224 293.412 97.1216 291.716 98.9009C290.04 100.672 288.215 102.293 286.259 103.746C284.396 105.192 282.621 106.51 280.936 107.699C279.072 108.977 277.298 110.21 275.612 111.399C273.926 112.588 272.448 113.609 271.176 114.461C271.198 116.302 271.585 118.121 272.315 119.811C272.917 121.155 273.776 122.366 274.843 123.378C275.852 124.227 277.011 124.877 278.259 125.295C279.584 125.629 280.945 125.799 282.311 125.8C285.494 125.712 288.598 124.79 291.317 123.125C294.542 121.183 297.594 118.966 300.441 116.497C303.393 113.951 306.188 111.226 308.81 108.338C311.433 105.534 313.587 103.112 315.273 101.071C315.709 100.488 316.338 100.082 317.047 99.9263C317.294 99.8321 317.561 99.8058 317.821 99.8503C318.081 99.8947 318.324 100.008 318.526 100.179C318.751 100.35 318.928 100.577 319.039 100.837C319.151 101.098 319.193 101.383 319.162 101.665C319.144 102.565 318.873 103.441 318.378 104.192ZM285.934 84.5745C284.587 84.692 283.305 85.2093 282.252 86.0607C280.677 87.3242 279.31 88.8287 278.2 90.5191C276.676 92.7016 275.401 95.0496 274.4 97.5188C273.13 100.538 272.236 103.702 271.738 106.941C272.724 106.178 273.823 105.415 275.035 104.652C276.248 103.889 277.431 102.998 278.584 101.977C281.476 99.8994 284.039 97.3942 286.185 94.5465C287.407 92.9345 288.232 91.0557 288.596 89.0627C288.843 87.8948 288.665 86.6764 288.093 85.6297C287.854 85.2817 287.53 85.0017 287.151 84.8168C286.773 84.6319 286.354 84.5485 285.934 84.5745Z" fill="white"/>
</g>
<g filter="url(#filter2_d_405_474)">
<path d="M313.801 110.285C324.478 98.2766 328.252 84.149 328 68.5C327.66 47.159 315.243 30.9843 298.356 18.7682C279.723 5.28897 258.104 0.934581 235.464 2.21266C212.824 3.49074 190.11 7.48845 169.807 17.8171C168.772 18.3373 170.753 24.7722 169.807 25.2478C186.872 16.5688 205.43 12.5859 224.359 10.5796C243.76 8.52875 263.398 8.6625 281.587 16.5242C297.572 23.4793 313.986 36.0669 321.824 52.0726C330.401 69.5942 325.771 89.3003 313.054 103.597C313.572 103.007 308.432 108.798 306.953 110.285H313.801Z" fill="white"/>
</g>
<path d="M302.574 122.067L307.559 117.567L312.135 112.608L316.033 107.567L311.424 105.456L307.061 110.067L301.577 115.567L302.574 122.067Z" fill="white"/>
<defs>
<filter id="filter0_d_405_474" x="79.5862" y="0.796509" width="85.6487" height="46.4763" filterUnits="userSpaceOnUse" color-interpolation-filters="sRGB">
<feFlood flood-opacity="0" result="BackgroundImageFix"/>
<feColorMatrix in="SourceAlpha" type="matrix" values="0 0 0 0 0 0 0 0 0 0 0 0 0 0 0 0 0 0 127 0" result="hardAlpha"/>
<feOffset dy="2"/>
<feGaussianBlur stdDeviation="1"/>
<feComposite in2="hardAlpha" operator="out"/>
<feColorMatrix type="matrix" values="0 0 0 0 0 0 0 0 0 0 0 0 0 0 0 0 0 0 0.25 0"/>
<feBlend mode="normal" in2="BackgroundImageFix" result="effect1_dropShadow_405_474"/>
<feBlend mode="normal" in="SourceGraphic" in2="effect1_dropShadow_405_474" result="shape"/>
</filter>
<filter id="filter1_d_405_474" x="0" y="31.9677" width="323.172" height="129.67" filterUnits="userSpaceOnUse" color-interpolation-filters="sRGB">
<feFlood flood-opacity="0" result="BackgroundImageFix"/>
<feColorMatrix in="SourceAlpha" type="matrix" values="0 0 0 0 0 0 0 0 0 0 0 0 0 0 0 0 0 0 127 0" result="hardAlpha"/>
<feOffset dy="2"/>
<feGaussianBlur stdDeviation="2"/>
<feComposite in2="hardAlpha" operator="out"/>
<feColorMatrix type="matrix" values="0 0 0 0 0 0 0 0 0 0 0 0 0 0 0 0 0 0 0.25 0"/>
<feBlend mode="normal" in2="BackgroundImageFix" result="effect1_dropShadow_405_474"/>
<feBlend mode="normal" in="SourceGraphic" in2="effect1_dropShadow_405_474" result="shape"/>
</filter>
<filter id="filter2_d_405_474" x="165.499" y="0" width="166.514" height="116.285" filterUnits="userSpaceOnUse" color-interpolation-filters="sRGB">
<feFlood flood-opacity="0" result="BackgroundImageFix"/>
<feColorMatrix in="SourceAlpha" type="matrix" values="0 0 0 0 0 0 0 0 0 0 0 0 0 0 0 0 0 0 127 0" result="hardAlpha"/>
<feOffset dy="2"/>
<feGaussianBlur stdDeviation="2"/>
<feComposite in2="hardAlpha" operator="out"/>
<feColorMatrix type="matrix" values="0 0 0 0 0 0 0 0 0 0 0 0 0 0 0 0 0 0 0.25 0"/>
<feBlend mode="normal" in2="BackgroundImageFix" result="effect1_dropShadow_405_474"/>
<feBlend mode="normal" in="SourceGraphic" in2="effect1_dropShadow_405_474" result="shape"/>
</filter>
</defs>
</svg>
