<svg width="325" height="156" viewBox="0 0 325 156" fill="none" xmlns="http://www.w3.org/2000/svg">
<path d="M89.9819 15.4288H134.862M79.5862 22.0272V41.0349C79.5862 41.098 79.6111 41.1585 79.6555 41.2031C79.6998 41.2477 79.76 41.2727 79.8228 41.2727H139.846C139.879 41.2735 139.912 41.2673 139.942 41.2545C139.973 41.2417 140 41.2226 140.023 41.1984L157.177 22.2056C157.214 22.1623 157.235 22.1069 157.235 22.0495C157.235 21.9922 157.214 21.9367 157.177 21.8935L139.994 2.87088C139.971 2.84671 139.943 2.8276 139.913 2.8148C139.882 2.802 139.849 2.79579 139.816 2.79657H79.8228C79.76 2.79657 79.6998 2.82163 79.6555 2.86622C79.6111 2.91081 79.5862 2.97129 79.5862 3.03436V22.0272Z" stroke="white" stroke-width="4"/>
<path d="M52.4892 72.2247C52.4004 71.9671 52.6518 71.3281 53.2433 70.3076C53.8348 69.2871 54.4707 67.9694 55.1509 66.3545C55.9653 64.6112 56.686 62.8253 57.3099 61.0044C58.0502 58.9909 58.5467 56.8953 58.7887 54.7626C59.1273 52.651 59.1273 50.4986 58.7887 48.387C58.4237 46.17 57.5308 44.0744 56.1861 42.279C55.706 41.7479 55.1186 41.326 54.4632 41.0415C53.8078 40.7571 53.0995 40.6165 52.3856 40.6294C50.4953 40.4946 48.5975 40.7526 46.8107 41.3873C44.5416 42.1031 42.3707 43.1016 40.3485 44.3596C38.1472 45.6406 36.1067 47.1823 34.2708 48.9518C32.4185 50.6412 30.7974 52.5702 29.45 54.6883C28.2332 56.6528 27.4936 58.8776 27.291 61.1827C27.1209 62.8361 27.1657 64.5047 27.4241 66.1464C27.7346 67.5805 28.1599 68.987 28.6959 70.3522C29.1675 71.5555 29.7056 72.7314 30.3077 73.8743C30.8992 74.9741 31.4464 75.9648 31.9492 76.8466C32.8291 78.2965 33.8929 79.6254 35.1137 80.7997C36.553 82.2463 38.1156 83.9008 39.8014 85.7634C41.6152 87.693 43.3091 89.7328 44.8735 91.8715C46.6346 94.2889 48.1226 96.8958 49.3098 99.644C50.6328 102.732 51.5284 105.987 51.9716 109.319C52.4778 113.269 52.433 117.27 51.8385 121.208C51.159 126.625 49.6631 131.907 47.4022 136.872C45.7169 140.607 43.4506 144.048 40.6886 147.067C38.665 149.36 36.2067 151.224 33.4575 152.551C31.5264 153.547 29.4868 154.315 27.3798 154.839C25.8683 155.129 24.3432 155.342 22.8104 155.478C20.9962 155.729 19.1536 155.684 17.3538 155.344C15.3702 155.053 13.4443 154.451 11.6457 153.561C9.61545 152.642 7.83513 151.245 6.45529 149.489C4.71503 147.402 3.30819 145.055 2.28518 142.534C1.28613 140.158 0.604892 137.659 0.259272 135.103C-0.237042 132.251 -0.0185068 129.319 0.89514 126.573C1.55119 125.829 2.2739 125.148 3.05413 124.537C3.77468 123.984 4.53597 123.487 5.33143 123.051C6.19156 122.535 7.08025 122.068 7.9932 121.654C9.08748 121.317 10.1867 121.02 11.2908 120.762C12.267 120.587 13.2569 120.503 14.2484 120.509C15.2796 120.416 16.3187 120.548 17.2946 120.896C16.1855 122.093 15.2855 123.469 14.6328 124.968C14.3406 125.544 14.0886 126.14 13.8787 126.751C13.5201 128.641 13.391 130.567 13.4942 132.488C13.6148 134.698 14.048 136.88 14.7807 138.967C15.5611 140.99 16.7724 142.816 18.3297 144.317C19.9849 145.89 22.1895 146.744 24.4666 146.695C30.638 146.864 35.8777 142.024 40.1859 132.176C41.5816 129.289 42.3192 126.126 42.3448 122.917C42.4416 119.859 42.0574 116.804 41.2062 113.866C40.4833 111.071 39.4205 108.375 38.0416 105.841C36.9336 103.559 35.6168 101.384 34.1081 99.3468C32.5696 97.3434 30.9207 95.4283 29.1691 93.6103C27.3058 91.49 25.4672 89.2014 23.6533 86.7443C21.7493 84.2116 20.053 81.5277 18.5811 78.7191C17.1056 75.7554 16.1074 72.5752 15.6236 69.297C14.9082 64.9302 15.3468 60.4511 16.8953 56.3082C18.4034 52.5019 20.5491 48.9834 23.2392 45.9052C25.7807 43.0638 28.7256 40.615 31.9787 38.638C34.605 37.0101 37.4692 35.8065 40.4668 35.0712C54.0714 32.3566 62.9884 34.6502 67.2176 41.9521C68.9625 44.6132 69.9822 47.6878 70.1751 50.8689C70.3397 53.7992 70.1109 56.7385 69.4949 59.6074C69.0828 61.9279 68.4029 64.1922 67.469 66.3545C67.1336 67.4168 66.6346 68.4197 65.9903 69.3267C65.2618 69.9596 64.4509 70.4895 63.5799 70.9021C61.8861 71.6869 60.0958 72.2417 58.2563 72.5517C57.5939 72.7189 56.9135 72.8038 56.2304 72.8043C55.5924 72.7996 54.9553 72.7549 54.3228 72.6706C53.6905 72.6301 53.07 72.4792 52.4892 72.2247ZM89.1181 126.365C92.2251 126.199 95.2187 125.136 97.7393 123.303C101.034 121.102 104.132 118.616 106.996 115.873C109.913 113.201 112.663 110.352 115.233 107.342C117.767 104.37 119.669 101.992 120.941 100.209C121.419 99.3386 122.182 98.6613 123.1 98.2916C123.34 98.1635 123.615 98.1188 123.882 98.1645C124.15 98.2102 124.395 98.3437 124.579 98.5442C124.979 99.1579 125.128 99.9036 124.993 100.625C124.84 101.689 124.45 102.705 123.854 103.597C123.263 104.588 122.247 106.074 120.808 108.056C119.369 110.037 117.722 112.118 115.869 114.297C113.834 116.682 111.682 118.964 109.422 121.134C107.066 123.418 104.567 125.548 101.939 127.509C99.406 129.33 96.6839 130.87 93.8206 132.101C91.2442 133.328 88.4347 133.982 85.5839 134.018C82.3181 134.123 79.0816 133.37 76.1937 131.834C73.8342 130.538 71.8087 128.706 70.2787 126.484C68.8362 124.265 67.8042 121.803 67.2324 119.216C66.65 116.581 66.3525 113.891 66.3452 111.191C66.4671 107.853 67.0647 104.55 68.1197 101.383C69.3206 97.4415 71.0573 93.6857 73.2806 90.2219C75.6286 86.5868 78.639 83.4304 82.1531 80.9186C85.7701 78.2591 90.1528 76.8605 94.6339 76.9358C95.9056 76.9086 97.1693 77.1438 98.3469 77.627C99.5245 78.1101 100.591 78.8308 101.481 79.7446C102.469 80.7386 103.231 81.9364 103.713 83.2553C104.196 84.5742 104.388 85.9826 104.275 87.3833C104.267 88.9408 104.007 90.4866 103.506 91.9606C103.02 93.3679 102.338 94.6989 101.481 95.9138C100.654 97.0014 99.6177 97.9111 98.4343 98.5888C97.328 99.2734 96.0513 99.6289 94.7522 99.6143C94.2697 99.6458 93.7869 99.5579 93.3461 99.3584C92.9053 99.1589 92.5198 98.8539 92.2235 98.4699C91.7087 97.6074 91.3624 96.6541 91.2032 95.6611C91.1186 94.6027 91.1186 93.5392 91.2032 92.4808C91.2862 91.7838 91.455 91.0999 91.7059 90.4448C92.0585 89.9111 92.5357 89.4723 93.096 89.1667L94.8705 88.275C95.3659 88.0312 95.7665 87.6286 96.0091 87.1307C96.3353 86.6429 96.5103 86.0688 96.5119 85.4811C96.5165 84.9428 96.3393 84.4188 96.0091 83.9949C95.803 83.7685 95.5476 83.593 95.2629 83.4822C94.9782 83.3713 94.6718 83.3281 94.3677 83.3559C92.8587 83.6596 91.4349 84.2939 90.1976 85.2136C87.903 86.7164 85.853 88.5661 84.1199 90.6974C81.873 93.4318 80.0348 96.4807 78.6632 99.748C76.9978 103.794 76.158 108.135 76.1937 112.514C76.0287 114.866 76.4188 117.223 77.3324 119.395C78.0098 120.947 79.0262 122.326 80.3061 123.43C81.5861 124.533 83.0967 125.333 84.7262 125.77C86.1571 126.165 87.6342 126.365 89.1181 126.365ZM109.909 130.05C109.466 130.845 108.775 131.472 107.943 131.834C107.656 132 107.335 132.098 107.004 132.121C106.674 132.144 106.342 132.092 106.035 131.967C105.745 131.883 105.485 131.718 105.284 131.492C105.082 131.266 104.948 130.988 104.896 130.689C104.763 129.809 104.941 128.91 105.399 128.148C105.656 127.643 106.247 126.499 107.174 124.715C108.1 122.932 109.155 120.807 110.338 118.34C111.521 115.793 112.833 113.074 114.272 110.181L118.324 101.769C119.674 99.1337 120.902 96.8005 122.006 94.7694C123.11 92.7384 123.938 91.2225 124.49 90.2219C123.563 89.3698 122.928 88.7754 122.582 88.4385C122.133 87.664 121.874 86.7926 121.828 85.8972C121.717 84.415 121.976 82.9284 122.582 81.5725C123.266 79.7736 124.16 78.0624 125.244 76.4751C126.267 74.8699 127.507 73.4146 128.926 72.1504C129.976 71.0924 131.376 70.4579 132.86 70.367C133.812 70.2671 134.773 70.4269 135.642 70.8297C136.511 71.2324 137.256 71.8632 137.799 72.6557C138.766 74.0562 139.375 75.674 139.573 77.3668C139.727 78.7729 139.642 80.1951 139.322 81.5725C139.005 83.2182 138.356 84.7811 137.414 86.1647L138.435 86.8037C139.09 87.0053 139.776 87.0908 140.461 87.0564C141.399 87.1019 142.34 87.0169 143.256 86.8037C144.128 86.6042 145.023 86.5193 145.917 86.5511C147.198 86.4995 148.455 86.9049 149.466 87.6954C150.417 88.4023 151.196 89.317 151.744 90.3705C152.354 91.436 152.784 92.5962 153.015 93.8035C153.334 94.8848 153.547 95.9948 153.651 97.1175C153.862 99.4496 153.284 101.785 152.01 103.746C150.659 106.034 149.013 108.541 147.071 111.266C145.878 112.92 144.665 114.822 143.433 116.972C142.369 118.688 141.853 120.69 141.954 122.709C142.068 123.651 142.37 124.561 142.842 125.384C143.265 126.068 144.448 126.409 146.391 126.409C148.058 126.348 149.678 125.835 151.078 124.923C152.971 123.73 154.753 122.367 156.402 120.851C158.265 119.157 160.084 117.329 161.858 115.367C163.633 113.406 165.279 111.454 166.797 109.512C168.316 107.53 169.582 105.792 170.598 104.296C171.613 102.8 172.417 101.66 173.008 100.877C173.384 100.24 173.962 99.7477 174.65 99.4805C174.929 99.3542 175.231 99.2888 175.537 99.2888C175.843 99.2888 176.145 99.3542 176.424 99.4805C176.686 99.632 176.904 99.8479 177.06 100.108C177.215 100.368 177.302 100.664 177.311 100.967C177.401 102.062 177.085 103.152 176.424 104.028C175.921 104.88 175.034 106.237 173.762 108.1C172.491 109.963 171.012 112.043 169.326 114.342C167.64 116.631 165.738 119.008 163.618 121.475C161.529 123.832 159.287 126.047 156.905 128.104C154.762 129.964 152.427 131.588 149.94 132.948C147.97 134.141 145.731 134.811 143.433 134.895C141.533 134.968 139.649 134.526 137.976 133.617C136.612 132.83 135.408 131.792 134.427 130.556C132.728 128.149 131.923 125.22 132.15 122.278C132.25 121.187 132.504 120.116 132.904 119.098C133.407 117.909 133.954 116.72 134.546 115.531C135.137 114.342 135.812 113.108 136.572 111.83C137.331 110.552 138.006 109.319 138.597 108.13C140.037 105.663 141.175 103.582 142.013 101.888C142.815 100.531 143.291 99.0041 143.403 97.4296C143.417 96.7183 143.244 96.016 142.901 95.3936C142.739 95.1041 142.499 94.8666 142.209 94.7088C141.918 94.5509 141.589 94.4792 141.259 94.5019C140.875 94.4891 140.491 94.5342 140.121 94.6357H139.485C139.186 94.6552 138.889 94.6999 138.597 94.7694H136.912C135.955 94.7992 135.003 94.627 134.117 94.2642C133.42 93.9497 132.698 93.6962 131.958 93.5062C131.623 94.1007 130.864 95.3738 129.681 97.3256L125.51 104.192C123.982 106.827 122.331 109.601 120.557 112.514C118.782 115.427 117.175 118.146 115.736 120.673C114.218 123.14 112.951 125.265 111.935 127.048C110.92 128.832 110.245 129.832 109.909 130.05ZM195.352 55.6543C195.06 56.684 194.556 57.6408 193.874 58.4631C193.196 59.3159 192.381 60.0492 191.463 60.6328C190.645 61.1344 189.743 61.4819 188.801 61.6583C188.409 61.7567 187.999 61.7623 187.604 61.6746C187.209 61.5869 186.839 61.4084 186.524 61.153C185.771 60.6829 185.13 60.0516 184.646 59.3041C184.163 58.5566 183.85 57.7113 183.729 56.8283C183.63 55.2585 184.028 53.6975 184.868 52.3699C185.668 50.9753 186.745 49.7612 188.033 48.8032C188.975 47.9535 190.105 47.3421 191.33 47.0198C191.732 46.9222 192.153 46.9297 192.552 47.0415C192.95 47.1534 193.314 47.3659 193.607 47.6588C194.302 48.2205 194.816 48.9752 195.086 49.8286C195.444 50.7773 195.615 51.7867 195.589 52.8009C195.681 53.7586 195.6 54.725 195.352 55.6543ZM177.859 82.7912C178.525 82.1431 179.361 81.6996 180.269 81.5131C181.476 81.1707 182.707 80.9174 183.951 80.7552C185.075 80.5148 186.219 80.3854 187.367 80.3688C187.999 80.2703 188.643 80.2703 189.275 80.3688C189.19 81.2862 188.976 82.1869 188.639 83.0438C188.136 84.738 187.5 86.7195 186.731 88.9884C185.962 91.2572 185.159 93.6499 184.321 96.1664C183.473 98.5442 182.837 100.496 182.413 102.022C181.989 103.548 181.496 105.286 180.934 107.238C180.343 109.111 179.796 110.978 179.293 112.841C178.889 114.519 178.593 116.222 178.406 117.938C178.192 119.184 178.325 120.465 178.79 121.639C179.079 122.461 179.555 123.204 180.18 123.809C180.666 124.136 181.237 124.312 181.822 124.314C184.17 124.044 186.382 123.065 188.166 121.505C190.946 119.498 193.571 117.283 196.018 114.877C198.719 112.241 201.213 109.611 203.5 106.986C205.788 104.36 207.454 102.2 208.499 100.506C209.016 99.7851 209.715 99.2158 210.524 98.8563C210.807 98.7226 211.118 98.6646 211.429 98.688C211.74 98.7115 212.04 98.8155 212.299 98.9901C212.556 99.1762 212.76 99.426 212.892 99.7151C213.024 100.004 213.08 100.323 213.053 100.64C213.092 101.589 212.828 102.527 212.299 103.315C210.538 106.3 208.561 109.151 206.384 111.845C203.762 115.075 200.972 118.216 198.014 121.267C195.295 124.015 192.373 126.554 189.275 128.861C186.485 130.982 184.203 132.086 182.428 132.176C180.955 132.255 179.483 131.995 178.125 131.418C176.754 130.895 175.472 130.164 174.324 129.248C173.24 128.266 172.299 127.136 171.53 125.889C170.79 124.604 170.354 123.165 170.258 121.683C170 118.801 170 115.901 170.258 113.019C170.518 109.217 170.982 105.432 171.648 101.68C172.283 97.9397 173.127 94.2384 174.176 90.5934C174.936 87.7944 176.182 85.1529 177.859 82.7912ZM232.159 57.6903C230.887 62.7828 229.453 67.6672 227.856 72.3436C226.258 77.02 224.652 81.3496 223.035 85.3325C221.428 89.2955 219.782 92.9465 218.096 96.2853C216.41 99.6242 214.971 102.512 213.778 104.95C212.921 109.836 212.921 114.835 213.778 119.722C214.626 123.457 216.272 125.324 218.717 125.324C220.978 125.201 223.101 124.193 224.632 122.516C226.69 120.492 228.44 118.173 229.822 115.635C231.365 112.885 232.642 109.994 233.638 107C234.635 104.285 235.314 101.462 235.663 98.5888C234.155 98.2136 232.763 97.4681 231.612 96.4191C230.662 95.3962 230.084 94.082 229.968 92.6882C229.853 91.2944 230.208 89.9021 230.976 88.7357C232.236 86.6375 234.156 85.0215 236.432 84.1436C237.4 83.7447 238.433 83.5281 239.479 83.5045C240.918 83.5045 242.145 84.4408 243.161 86.3133C244.276 88.4511 244.96 90.7896 245.172 93.1941C248.764 93.0927 252.335 92.5944 255.819 91.708C259.421 90.8147 262.943 89.6217 266.348 88.1413C267.039 87.7507 267.844 87.614 268.625 87.7549C268.887 87.8125 269.129 87.9373 269.329 88.117C269.528 88.2967 269.678 88.5252 269.764 88.7803C269.889 89.0606 269.954 89.3645 269.954 89.672C269.954 89.9794 269.889 90.2834 269.764 90.5637C269.465 91.2009 268.936 91.7002 268.285 91.9606C266.311 93.0823 264.283 94.1041 262.207 95.0221C258.371 96.6301 254.375 97.8256 250.288 98.5888C248.616 98.9089 246.919 99.078 245.216 99.0941C244.755 102.935 243.687 106.678 242.052 110.181C240.296 114.055 238.129 117.727 235.59 121.134C233.194 124.309 230.332 127.1 227.101 129.411C224.528 131.453 221.372 132.614 218.096 132.725C216.86 132.694 215.629 132.565 214.414 132.339C212.682 131.963 211.123 131.022 209.977 129.664C208.228 127.546 206.97 125.064 206.295 122.397C205.149 117.689 204.721 112.833 205.023 107.996C205.136 103.547 205.601 99.1144 206.414 94.7397C207.261 90.0732 208.277 85.4018 209.46 80.7254C210.643 76.0491 211.954 71.5461 213.393 67.2164C214.911 62.7976 216.351 58.8346 217.711 55.3273C219.072 51.82 220.299 48.8478 221.393 46.4105C222.121 44.7918 223.013 43.2529 224.055 41.8183C224.76 40.9276 225.675 40.2277 226.717 39.7823C227.649 39.2997 228.645 38.9544 229.674 38.7569C230.585 38.5114 231.53 38.426 232.469 38.5042C233.078 38.5355 233.677 38.666 234.244 38.8906C234.747 39.2275 234.875 41.0951 234.628 44.4934C234.259 48.966 233.431 53.3883 232.159 57.6903ZM314.378 104.192C311.757 108.036 308.876 111.696 305.757 115.144C302.606 118.57 299.173 121.722 295.494 124.567C292.087 127.201 288.384 129.425 284.463 131.195C281.055 132.825 277.338 133.697 273.564 133.751C271.466 133.697 269.399 133.222 267.486 132.354C265.274 131.436 263.287 130.046 261.66 128.282C259.727 126.185 258.242 123.711 257.298 121.015C256.234 117.509 255.932 113.814 256.41 110.181C256.84 106.376 257.91 102.672 259.575 99.2279C261.38 95.4049 263.634 91.8126 266.289 88.5277C268.87 85.4106 271.906 82.7049 275.294 80.5025C278.306 78.4944 281.825 77.3912 285.439 77.3222C288.652 77.3222 290.974 78.1296 292.404 79.7446C293.113 80.549 293.649 81.4926 293.978 82.5158C294.306 83.539 294.42 84.6196 294.311 85.6891C294.082 88.2481 293.305 90.7271 292.034 92.9564C290.864 95.1224 289.412 97.1216 287.716 98.9009C286.04 100.672 284.215 102.293 282.259 103.746C280.396 105.192 278.621 106.51 276.936 107.699C275.072 108.977 273.298 110.21 271.612 111.399C269.926 112.588 268.448 113.609 267.176 114.461C267.198 116.302 267.585 118.121 268.315 119.811C268.917 121.155 269.776 122.366 270.843 123.378C271.852 124.227 273.011 124.877 274.259 125.295C275.584 125.629 276.945 125.799 278.311 125.8C281.494 125.712 284.598 124.79 287.317 123.125C290.542 121.183 293.594 118.966 296.441 116.497C299.393 113.951 302.188 111.226 304.81 108.338C307.433 105.534 309.587 103.112 311.273 101.071C311.709 100.488 312.338 100.082 313.047 99.9263C313.294 99.8321 313.561 99.8058 313.821 99.8503C314.081 99.8947 314.324 100.008 314.526 100.179C314.751 100.35 314.928 100.577 315.039 100.837C315.151 101.098 315.193 101.383 315.162 101.665C315.144 102.565 314.873 103.441 314.378 104.192ZM281.934 84.5745C280.587 84.692 279.305 85.2093 278.252 86.0607C276.677 87.3242 275.31 88.8287 274.2 90.5191C272.676 92.7016 271.401 95.0496 270.4 97.5188C269.13 100.538 268.236 103.702 267.738 106.941C268.724 106.178 269.823 105.415 271.035 104.652C272.248 103.889 273.431 102.998 274.584 101.977C277.476 99.8994 280.039 97.3942 282.185 94.5465C283.407 92.9345 284.232 91.0557 284.596 89.0627C284.843 87.8948 284.665 86.6764 284.093 85.6297C283.854 85.2817 283.53 85.0017 283.151 84.8168C282.773 84.6319 282.354 84.5485 281.934 84.5745Z" fill="white"/>
<path d="M309.801 110.285C320.478 98.2766 324.252 84.149 324 68.5C323.66 47.159 311.243 30.9843 294.356 18.7682C275.723 5.28897 254.104 0.934581 231.464 2.21266C208.824 3.49074 186.11 7.48845 165.807 17.8171C164.772 18.3373 166.753 24.7722 165.807 25.2478C182.872 16.5688 201.43 12.5859 220.359 10.5796C239.76 8.52875 259.398 8.6625 277.587 16.5242C293.572 23.4793 309.986 36.0669 317.824 52.0726C326.401 69.5942 321.771 89.3003 309.054 103.597C309.572 103.007 304.432 108.798 302.953 110.285H309.801Z" fill="white"/>
<path d="M298.574 122.067L303.559 117.567L308.135 112.608L312.033 107.567L307.424 105.456L303.061 110.067L297.577 115.567L298.574 122.067Z" fill="white"/>
</svg>
